<?xml version="1.0" encoding="UTF-8"?>
<svg version="1.1" xmlns="http://www.w3.org/2000/svg" width="60" height="30">
<path d="M0 0 C19.8 0 39.6 0 60 0 C60 9.9 60 19.8 60 30 C40.2 30 20.4 30 0 30 C0 20.1 0 10.2 0 0 Z " fill="#FBFBFB" transform="translate(0,0)"/>
<path d="M0 0 C7.92 0 15.84 0 24 0 C24 5.28 24 10.56 24 16 C22.68 16 21.36 16 20 16 C20 17.98 20 19.96 20 22 C23.63 22 27.26 22 31 22 C31 23.98 31 25.96 31 28 C29.02 28 27.04 28 25 28 C24.67 28.66 24.34 29.32 24 30 C16.08 30 8.16 30 0 30 C0 20.1 0 10.2 0 0 Z " fill="#FEFEFE" transform="translate(0,0)"/>
<path d="M0 0 C4.62 0 9.24 0 14 0 C14.66 1.32 15.32 2.64 16 4 C12.98968256 4.93423645 12.13349732 5.04449911 9 4 C9 6.31 9 8.62 9 11 C9.66 11.33 10.32 11.66 11 12 C10.34 12 9.68 12 9 12 C9 13.32 9 14.64 9 16 C11.31 16 13.62 16 16 16 C16 17.32 16 18.64 16 20 C14.68 20 13.36 20 12 20 C12 20.66 12 21.32 12 22 C11.01 22 10.02 22 9 22 C9 23.65 9 25.3 9 27 C9.66 27.33 10.32 27.66 11 28 C7.91111478 30.05925681 7.29064073 30.2390374 3.8125 30.125 C2.554375 30.08375 1.29625 30.0425 0 30 C0 27.69 0 25.38 0 23 C0.33 23 0.66 23 1 23 C1 24.65 1 26.3 1 28 C2.98 28 4.96 28 7 28 C7 26.02 7 24.04 7 22 C3.37 22 -0.26 22 -4 22 C-4 20.02 -4 18.04 -4 16 C-2.68 16 -1.36 16 0 16 C0 10.72 0 5.44 0 0 Z " fill="#BABABA" transform="translate(24,0)"/>
<path d="M0 0 C1.98 0 3.96 0 6 0 C6 1.32 6 2.64 6 4 C4.68 4 3.36 4 2 4 C2 4.66 2 5.32 2 6 C1.01 6 0.02 6 -1 6 C-1 7.65 -1 9.3 -1 11 C-0.34 11.33 0.32 11.66 1 12 C-2.08888522 14.05925681 -2.70935927 14.2390374 -6.1875 14.125 C-8.0746875 14.063125 -8.0746875 14.063125 -10 14 C-10 11.69 -10 9.38 -10 7 C-9.67 7 -9.34 7 -9 7 C-9 8.65 -9 10.3 -9 12 C-7.02 12 -5.04 12 -3 12 C-3 10.02 -3 8.04 -3 6 C-5.64 6 -8.28 6 -11 6 C-11 4.68 -11 3.36 -11 2 C-7.37 2 -3.74 2 0 2 C0 1.34 0 0.68 0 0 Z " fill="#A3A3A3" transform="translate(34,16)"/>
<path d="M0 0 C1.98 0 3.96 0 6 0 C6 4.62 6 9.24 6 14 C5.67 14 5.34 14 5 14 C5 12.35 5 10.7 5 9 C4.01 9 3.02 9 2 9 C2 10.65 2 12.3 2 14 C1.34 14 0.68 14 0 14 C0 9.38 0 4.76 0 0 Z " fill="#FBFBFB" transform="translate(25,2)"/>
<path d="M0 0 C0.33 0 0.66 0 1 0 C1 4.95 1 9.9 1 15 C1.66 15 2.32 15 3 15 C3 13.35 3 11.7 3 10 C3.99 10 4.98 10 6 10 C6 11.98 6 13.96 6 16 C4.02 16 2.04 16 0 16 C0 10.72 0 5.44 0 0 Z " fill="#989898" transform="translate(24,1)"/>
<path d="M0 0 C3.63 0 7.26 0 11 0 C11 0.99 11 1.98 11 3 C7.37 3 3.74 3 0 3 C0 2.01 0 1.02 0 0 Z " fill="#B7B7B7" transform="translate(23,18)"/>
<path d="M0 0 C4.62 0 9.24 0 14 0 C14 0.66 14 1.32 14 2 C10.37 2 6.74 2 3 2 C3 3.32 3 4.64 3 6 C2.01 6 1.02 6 0 6 C0 4.02 0 2.04 0 0 Z " fill="#D5D5D5" transform="translate(20,16)"/>
<path d="M0 0 C0.33 0 0.66 0 1 0 C1 2.31 1 4.62 1 7 C1.66 7.33 2.32 7.66 3 8 C2.34 8 1.68 8 1 8 C1 9.65 1 11.3 1 13 C0.34 13 -0.32 13 -1 13 C-1.0272415 11.58344207 -1.04650467 10.16672955 -1.0625 8.75 C-1.07410156 7.96109375 -1.08570312 7.1721875 -1.09765625 6.359375 C-1.00385306 4.09308998 -0.63241063 2.1711105 0 0 Z " fill="#B0B0B0" transform="translate(32,4)"/>
<path d="M0 0 C1.98 0 3.96 0 6 0 C6.66 1.32 7.32 2.64 8 4 C6.125 4.625 6.125 4.625 4 5 C2 3 2 3 0 0 Z " fill="#D5D5D5" transform="translate(32,0)"/>
<path d="M0 0 C1.32 0 2.64 0 4 0 C4 1.32 4 2.64 4 4 C2.68 4 1.36 4 0 4 C-0.33 4.66 -0.66 5.32 -1 6 C-0.67 4.02 -0.34 2.04 0 0 Z " fill="#B7B7B7" transform="translate(36,16)"/>
</svg>
